<svg width="243" height="383" viewBox="0 0 243 383" fill="none" xmlns="http://www.w3.org/2000/svg">
<path d="M211.392 225.298C217.919 224.929 217.428 212.471 210.936 212.424C181.268 212.243 152.63 220.763 123.992 228.858C133.33 225.416 142.71 222.579 151.431 220.04C177.209 212.518 202.44 203.331 227.026 191.801C232.024 189.467 228.393 181.631 223.499 183.478C212.395 187.651 200.035 187.25 188.538 189.357C173.36 192.131 158.301 195.864 143.32 199.637C136.176 201.437 129.067 203.378 121.973 205.374C129.327 201.885 136.744 198.544 144.287 195.55C157.944 190.119 171.776 185.285 185.376 179.682C198.268 174.376 214.498 166.839 228.484 165.99C233.342 165.707 232.957 156.583 228.147 156.441C199.425 155.592 168.565 164.143 140.635 170.895C130.483 173.355 120.423 176.286 110.384 179.367C115.13 177.19 119.904 175.115 124.742 173.339C140.558 167.499 156.205 162.344 172.392 157.974C186.407 154.201 202.292 147.261 216.783 147.568C216.783 147.568 216.783 147.56 216.783 147.552C217.19 147.528 217.582 147.536 217.989 147.505C223.093 147.096 222.742 137.225 217.639 137.413C217.225 137.429 216.825 137.484 216.412 137.508C216.412 137.492 216.412 137.476 216.412 137.46C204.178 138.058 192.541 135.716 180.3 137.295C166.938 139.017 153.555 140.313 140.228 142.302C120.62 145.249 101.796 151.678 82.5663 155.914C96.0826 147.992 109.732 140.416 124.146 134.254C150.947 122.795 180.693 117.937 208.693 111.328C214.414 109.976 212.864 100.717 207.123 101.393C194.658 102.839 182.095 101.637 169.581 102.384C156.072 103.201 142.612 106.282 129.292 108.781C119.603 110.597 109.767 111.846 99.9875 113.363C108.547 109.127 117.184 105.205 124.91 101.024C146.524 89.3447 168.565 83.0571 191.798 77.6183C194.938 76.8795 196.06 70.9456 192.415 69.971C175.028 65.4204 161.133 65.5461 143.264 68.1476C132.026 69.7824 120.844 72.101 109.641 74.223C121.58 68.5485 133.505 62.8975 144.743 55.8161C146.524 54.7001 145.283 52.02 143.432 52.6959C121.18 60.8305 100.429 67.9983 79.0259 79.0487C75.3945 80.9114 76.0254 88.4723 80.4771 88.2679C109.872 86.9318 139.934 76.408 169.644 75.9835C153.303 80.6757 136.975 85.3049 120.949 91.6789C101.453 99.4205 77.3434 109.025 61.0859 123.706C55.6808 128.587 61.4715 136.612 67.2272 134.38C85.1041 127.447 104.734 124.932 123.697 121.396C97.3375 130.89 72.7305 145.815 48.523 160.599C43.7558 163.507 44.0152 173.889 50.5701 173.63C78.3108 172.537 103.605 161.589 130.525 155.427C137.101 153.918 143.754 152.818 150.421 151.859C143.867 153.73 137.354 155.812 130.813 158.186C99.7701 169.425 71.3354 186.26 41.7228 201.625C35.6166 204.785 38.6311 216.48 45.3893 214.499C76.3058 205.453 106.206 192.665 137.129 183.627C142.752 181.984 148.43 180.585 154.13 179.273C152.756 179.768 151.368 180.255 149.994 180.75C118.937 191.982 89.724 207.433 60.3708 223.286C54.4189 226.493 57.2862 237.598 63.9532 235.893C77.6869 232.364 91.2453 228.072 104.776 223.663C93.8883 228.458 83.4426 234.305 74.6023 241.63C69.6178 245.756 73.9923 253.993 79.4325 253.191C107.685 249.018 135.342 238.368 163.433 231.515C152.118 236.71 140.852 245.065 131.072 253.105C127.048 256.414 132.047 262.913 136.057 259.699C144.483 252.948 154.663 246.196 164.646 241.771C165.767 242.502 167.163 242.667 168.698 241.701C175.61 237.331 183.161 235.437 190.641 232.67C197.49 230.132 204.136 225.707 211.392 225.298ZM224.509 296.269C224.278 290.375 217.828 291.695 214.722 293.157C210.095 295.326 205.286 296.584 200.806 299.193C196.502 301.7 198.43 310.118 203.491 308.656C209.499 306.919 216.293 306.023 221.698 302.384C223.864 300.93 224.621 299.044 224.509 296.269ZM242.638 332.619C240.836 328.006 234.127 327.629 230.237 326.788C226.374 325.962 221.207 325.907 218.171 329.098C216.671 330.678 217.386 333.523 219.489 333.806C223.324 334.325 226.871 335.449 230.489 336.958C234.064 338.443 238.243 340.832 241.629 337.862C243.045 336.628 243.332 334.388 242.638 332.619ZM75.4015 334.301C77.5747 332.957 77.9112 328.768 75.1351 327.856C68.8256 325.797 53.2341 320.948 50.2827 330.859C49.5886 333.177 50.5911 335.37 52.5331 336.337C55.7719 337.948 59.6488 336.187 63.0979 336.29C67.5847 336.408 71.3283 336.801 75.4015 334.301ZM80.2668 348.511C75.5557 351.498 71.09 355.129 65.762 356.732C63.806 357.322 62.6773 358.579 62.0674 360.497C61.9062 360.796 61.766 361.11 61.5416 361.377C59.7469 363.594 60.7704 367.46 62.7404 369.017C65.131 370.895 67.76 369.881 69.5547 367.673C69.9543 367.177 70.1716 366.604 70.431 366.054C75.8011 362.855 82.3629 359.31 84.1787 352.519C84.8447 350.044 82.6153 347.01 80.2668 348.511ZM20.9155 343.167C23.6776 342.884 20.3897 342.915 19.7447 342.97C20.5088 342.907 18.1743 343.017 18.1323 343.017C16.0642 343.041 14.0101 342.789 11.942 342.766C7.94594 342.727 2.05007 341.901 0.304438 347.104C-0.494765 349.517 0.339494 352.04 2.10615 353.565C4.81924 355.907 10.5469 354.068 13.7577 353.698C15.7206 353.463 17.7467 352.905 19.6466 352.299C21.7497 351.616 23.4463 349.926 24.1263 348.818C25.8018 346.059 23.6496 342.884 20.9155 343.167ZM187.984 350.869C184.507 349.777 181.058 348.267 177.482 348.055C175.176 347.906 173.535 350.452 174.482 352.85C176.059 356.811 179.207 358.273 182.712 359.758C186.498 361.338 190.844 364.309 194.847 364.733C198.941 365.181 200.96 359.947 198.682 356.504C196.333 352.983 191.559 351.993 187.984 350.869ZM80.7015 20.7707C82.6504 20.2205 84.5012 20.1969 86.2748 20.5978C85.4055 22.3111 84.6274 24.0795 83.8702 25.9579C82.9939 28.1114 84.6344 30.3828 86.5132 30.6736C91.035 31.3653 95.6409 31.0351 100.121 31.7897C96.1877 37.1184 89.2683 40.4351 84.9078 44.915C82.9238 46.9585 84.3259 51.6663 87.3264 50.6917C95.3815 48.0902 103.633 46.1332 111.969 45.1744C106.192 50.0394 100.268 54.6686 94.1687 59.0306C91.8132 60.7126 92.5843 65.4597 95.7741 64.6973C103.612 62.811 110.356 56.4606 118.544 56.4291C120.648 56.4291 121.026 52.9552 118.867 52.7352C116.231 52.468 113.798 52.7666 111.443 53.3089C115.256 50.2909 119.021 47.2021 122.618 43.8382C124.321 42.2349 123.571 38.3602 121.089 38.3838C113.917 38.4624 106.872 39.3112 99.8963 40.7102C103.093 38.0065 105.953 34.9649 107.671 30.7129C108.316 29.1096 107.384 26.9482 105.911 26.4295C101.242 24.7633 96.4401 24.6768 91.6379 24.2367C92.2268 23.0656 92.8648 21.9339 93.6499 20.8414C94.9819 18.963 93.9023 16.3851 92.1637 15.5127C87.2703 13.0605 83.0289 11.8423 78.0444 14.4909C74.427 16.4165 77.0349 22.5076 80.7015 20.7707Z" fill="#FFA3F3"/>
<path d="M97.9811 267.858C97.2757 267.436 117.823 282.539 122.404 297.242C126.993 311.912 113.893 366.557 113.454 370.419C113.014 374.281 112.153 378.414 115.643 374.281C119.142 370.159 130.044 353.931 135.055 354.191C140.075 354.44 156.647 372.485 156.436 370.419C156.234 368.363 145.544 338.472 142.915 304.966C144.225 295.944 152.515 270.174 173.026 247C165.817 251.63 143.125 283.578 137.455 286.683C131.784 289.744 107.353 273.517 97.9811 267.858Z" fill="#65320B"/>
</svg>
